HIERARCHY
ROOT Hips
{
	OFFSET 0.000000 0.000000 0.000000 
	CHANNELS 6 Xposition Yposition Zposition Yrotation Zrotation Xrotation 
	JOINT Lumbar
	{
		OFFSET 0.000000 0.000000 0.000000 
		CHANNELS 3 Zrotation Xrotation Yrotation
		JOINT Neck
		{
			OFFSET 0.000000 0.445665 0.000000 
			CHANNELS 3 Zrotation Xrotation Yrotation
			End Site
			{
				OFFSET 0.000000 0.227535 0.000000 
			}
		}
		JOINT RightShoulder
		{
			OFFSET 0.019635 0.377685 0.194865 
			CHANNELS 3 Zrotation Xrotation Yrotation
			JOINT RightElbow
			{
				OFFSET 0.000000 -0.243375 0.000000 
				CHANNELS 2 Zrotation Yrotation
				JOINT RightWrist
				{
					OFFSET 0.000000 -0.264825 0.000000 
					CHANNELS 2 Zrotation Xrotation
					End Site
					{
						OFFSET 0.006600 -0.176220 0.000990 
					}
				}
			}
		}
		JOINT LeftShoulder
		{
			OFFSET 0.019635 0.377685 -0.194865 
			CHANNELS 3 Zrotation Xrotation Yrotation
			JOINT LeftElbow
			{
				OFFSET 0.000000 -0.243375 0.000000 
				CHANNELS 2 Zrotation Yrotation
				JOINT LeftWrist
				{
					OFFSET 0.000000 -0.264825 0.000000 
					CHANNELS 2 Zrotation Xrotation
					End Site
					{
						OFFSET 0.006600 -0.176220 -0.000990 
					}
				}
			}
		}
	}
	JOINT RightHip
	{
		OFFSET 0.052140 -0.069960 0.075570 
		CHANNELS 3 Zrotation Xrotation Yrotation
		JOINT RightKnee
		{
			OFFSET 0.000000 -0.402270 0.000000 
			CHANNELS 1 Zrotation
			JOINT RightAnkle
			{
				OFFSET 0.000000 -0.404085 0.000000 
				CHANNELS 3 Zrotation Xrotation Yrotation
				End Site
				{
					OFFSET 0.204105 -0.089430 0.008415 
				}
			}
		}
	}
	JOINT LeftHip
	{
		OFFSET 0.052140 -0.069960 -0.075570 
		CHANNELS 3 Zrotation Xrotation Yrotation
		JOINT LeftKnee
		{
			OFFSET 0.000000 -0.402270 0.000000 
			CHANNELS 1 Zrotation
			JOINT LeftAnkle
			{
				OFFSET 0.000000 -0.404085 0.000000 
				CHANNELS 3 Zrotation Xrotation Yrotation
				End Site
				{
					OFFSET 0.204105 -0.089430 -0.008415 
				}
			}
		}
	}
}
MOTION
Frames: 16
Frame Time: 0.02
0.37445 -0.23287 0.10274 184.70167 -40.28462 -0.09135 15.14178 5.69165 -5.4712 10.94472 -34.44516 -0.83079 169.88196 -147.97114 -90.01163 96.99419 67.83378 -79.69796 -22.96961 169.88198 148.75323 90.01167 80.14055 -62.11229 -79.6984 22.97528 106.20489 -7.79628 -9.36409 -70.71174 -6.13548 -3.01969 -2.14611 108.02332 4.84555 1.96242 -73.2876 -6.0299 3.82102 2.61681
0.37465 -0.23277 0.10266 184.92364 -40.19078 0.08467 15.00979 5.63399 -5.48115 10.99254 -34.55361 -0.83079 169.88196 -147.88018 -90.01163 96.91283 67.75285 -79.69796 -22.96961 169.88198 149.02503 90.01166 80.1298 -62.13253 -79.69834 22.97449 105.98852 -7.99189 -9.33179 -69.52487 -6.97268 -2.84752 -2.09152 107.90057 4.65394 2.05638 -73.38975 -5.95838 3.84964 2.62831
0.37491 -0.23262 0.10258 185.22734 -40.07424 0.30051 14.84572 5.57572 -5.5386 11.01979 -34.56129 -0.83079 169.88196 -147.79697 -90.01163 96.80622 67.65812 -79.69796 -22.9696 169.88198 149.32295 90.01165 80.09005 -62.14795 -79.69826 22.97348 105.71467 -8.23082 -9.27365 -68.01495 -8.03477 -2.63862 -2.02952 107.74558 4.42241 2.18833 -73.40529 -5.92683 3.87171 2.63766
0.37513 -0.2325 0.10251 185.48618 -39.97165 0.49255 14.70084 5.52011 -5.57292 11.05295 -34.61392 -0.83079 169.88196 -147.71229 -90.01163 96.71761 67.57279 -79.69796 -22.9696 169.88197 149.59856 90.01165 80.06748 -62.16558 -79.69819 22.9726 105.47695 -8.44353 -9.22669 -66.7016 -8.96185 -2.45316 -1.97303 107.60991 4.21513 2.29999 -73.45936 -5.87832 3.89606 2.64769
0.37538 -0.23235 0.10242 185.7784 -39.85338 0.70978 14.53559 5.45317 -5.61429 11.09921 -34.66555 -0.83079 169.88196 -147.61696 -90.01163 96.6029 67.47367 -79.69796 -22.9696 169.88197 149.91874 90.01164 80.0287 -62.18314 -79.69811 22.9716 105.19692 -8.6856 -9.18256 -65.17519 -10.02952 -2.23796 -1.90686 107.45339 3.98229 2.42664 -73.51647 -5.82577 3.92291 2.65877
0.37559 -0.23224 0.10236 186.01995 -39.7625 0.88336 14.40528 5.41031 -5.65216 11.11447 -34.69697 -0.83079 169.88196 -147.54662 -90.01163 96.53576 67.40011 -79.69796 -22.96959 169.88196 150.15217 90.01163 80.01616 -62.19968 -79.69805 22.9708 104.99083 -8.87605 -9.12684 -64.01471 -10.858 -2.07627 -1.85926 107.33298 3.79343 2.53006 -73.54462 -5.79228 3.94315 2.6673
0.37568 -0.23228 0.10241 186.10438 -39.75308 0.92926 14.38184 5.43236 -5.66761 11.04144 -34.69855 -0.83079 169.88196 -147.54081 -90.01163 96.60935 67.4018 -79.69796 -22.9696 169.88196 150.13852 90.01163 80.08786 -62.21474 -79.69804 22.97066 105.01014 -8.91418 -9.03772 -63.97234 -10.95784 -2.07379 -1.86564 107.3213 3.73197 2.56186 -73.54102 -5.78305 3.94681 2.66838
0.37573 -0.23236 0.1025 186.13433 -39.77202 0.92922 14.39428 5.47908 -5.67809 10.93944 -34.68373 -0.83079 169.88196 -147.56062 -90.01163 96.73107 67.42956 -79.69796 -22.9696 169.88196 150.03675 90.01163 80.18603 -62.22892 -79.69805 22.97074 105.1047 -8.89839 -8.93901 -64.30502 -10.81111 -2.12618 -1.89091 107.34689 3.71675 2.56822 -73.50629 -5.79513 3.94404 2.66715
0.3758 -0.23241 0.10257 186.18739 -39.77785 0.94844 14.38891 5.51586 -5.6914 10.85591 -34.67618 -0.83079 169.88196 -147.57058 -90.01163 96.82832 67.44457 -79.69796 -22.9696 169.88196 149.97599 90.01163 80.26903 -62.2434 -79.69804 22.97071 105.16011 -8.90666 -8.84972 -64.44777 -10.78546 -2.15199 -1.90702 107.35505 3.6828 2.58485 -73.469 -5.80867 3.94433 2.66765
0.37586 -0.2325 0.10263 186.25054 -39.7838 0.97604 14.38913 5.54748 -5.70367 10.74937 -34.66566 -0.83079 169.88196 -147.57313 -90.01163 96.93507 67.46279 -79.69796 -22.96961 169.88196 149.91219 90.01163 80.36444 -62.25813 -79.69804 22.9707 105.23406 -8.91878 -8.73859 -64.6606 -10.72986 -2.18334 -1.92521 107.36475 3.63792 2.60871 -73.50066 -5.77475 3.94411 2.66528
0.37592 -0.23253 0.10271 186.27833 -39.79653 0.97455 14.38619 5.59542 -5.71672 10.68398 -34.65891 -0.83079 169.88196 -147.5972 -90.01163 97.03452 67.48084 -79.69796 -22.96961 169.88196 149.83331 90.01163 80.44047 -62.2722 -79.69804 22.97071 105.28846 -8.90898 -8.67047 -64.82178 -10.67487 -2.21677 -1.94372 107.37977 3.62718 2.61046 -73.38055 -5.84652 3.94314 2.66827
0.37597 -0.23238 0.10281 186.22418 -39.82142 0.90551 14.37013 5.68469 -5.72903 10.74079 -34.66602 -0.83079 169.88196 -147.67335 -90.01163 97.09568 67.49086 -79.69796 -22.9696 169.88196 149.73573 90.01163 80.45852 -62.28484 -79.69804 22.97069 105.26678 -8.85618 -8.72841 -64.74167 -10.68288 -2.24188 -1.95814 107.40732 3.70048 2.56145 -72.86704 -6.18369 3.94504 2.68746
0.37602 -0.23217 0.10291 186.13555 -39.85229 0.80836 14.34918 5.78901 -5.74267 10.83973 -34.67809 -0.83079 169.88196 -147.77021 -90.01163 97.149 67.50007 -79.69795 -22.96959 169.88196 149.62577 90.01163 80.45608 -62.29686 -79.69804 22.9707 105.22384 -8.78229 -8.82925 -64.59957 -10.69864 -2.26746 -1.97232 107.43802 3.80641 2.49013 -72.19995 -6.62929 3.94592 2.71198
0.37608 -0.232 0.10301 186.06064 -39.88017 0.72275 14.32753 5.885 -5.75834 10.91864 -34.68882 -0.83079 169.88196 -147.85853 -90.01163 97.21036 67.51052 -79.69795 -22.96958 169.88196 149.52024 90.01163 80.46166 -62.30906 -79.69804 22.97072 105.19328 -8.71484 -8.90726 -64.49202 -10.70915 -2.29344 -1.98691 107.46259 3.89701 2.42614 -71.59049 -7.04021 3.945 2.73349
0.3761 -0.23177 0.10312 185.9918 -39.90981 0.64041 14.31871 5.98848 -5.76336 11.0007 -34.69517 -0.83079 169.88196 -147.94497 -90.01163 97.25503 67.51831 -79.69795 -22.96957 169.88196 149.41609 90.01163 80.47293 -62.32161 -79.69804 22.97063 105.15367 -8.65828 -8.9987 -64.37041 -10.71874 -2.31885 -2.00095 107.50739 3.99176 2.37306 -71.02706 -7.39425 3.953 2.75734
0.37619 -0.23165 0.1032 185.90321 -39.93731 0.54565 14.28246 6.07921 -5.79017 11.08604 -34.71192 -0.83079 169.88196 -148.03878 -90.01163 97.33132 67.53098 -79.69795 -22.96955 169.88196 149.30804 90.01163 80.46797 -62.33336 -79.69805 22.97077 105.12709 -8.57538 -9.07285 -64.25853 -10.73497 -2.34469 -2.01574 107.51145 4.08445 2.29237 -70.33692 -7.88726 3.94275 2.77767
